# xmcd CD database file
#
# Track frame offsets:
#	150
#	14857
#	31002
#	46272
#	59737
#	76167
#	90762
#	102912
#	118482
#	131535
#	144453
#	157400
#	171275
#	183730
#	198023
#	213283
#	226786
#	239706
#	252319
#	265931
#	290666
#
# Disc length: 3897 seconds
#
# Revision: 0
# Processed by: cddbd v1.5.1PL0 Copyright (c) Steve Scherf et al.
# Submitted via: CDex 1.50
#
DISCID=350f3715
DTITLE=Duke Ellington - Good Old Vintage
DYEAR=2003
DGENRE=Jazz
TTITLE0=Cotton tail
TTITLE1=All Too Soon
TTITLE2=In a mellow tone
TTITLE3=Take the ''a''a train
TTITLE4=Just a-sittin' and a-rockin'
TTITLE5=Perdido
TTITLE6=C jam blues
TTITLE7=What am i here for?
TTITLE8=Main stem
TTITLE9=Caravan
TTITLE10=Mood indigo
TTITLE11=It don't mean a thing
TTITLE12=Sophisticated lady
TTITLE13=Things ain't what they used to be
TTITLE14=Just squeeze  me
TTITLE15=Creole love call
TTITLE16=Snibor
TTITLE17=On the sunny side of the street
TTITLE18=Love you madly
TTITLE19=Satin doll
TTITLE20=Data
EXTD=YEAR: 2003
EXTT0=
EXTT1=
EXTT2=
EXTT3=
EXTT4=
EXTT5=
EXTT6=
EXTT7=
EXTT8=
EXTT9=
EXTT10=
EXTT11=
EXTT12=
EXTT13=
EXTT14=
EXTT15=
EXTT16=
EXTT17=
EXTT18=
EXTT19=
EXTT20=
PLAYORDER=
